<?xml version="1.0" encoding="utf-8"?><!-- Uploaded to: SVG Repo, www.svgrepo.com, Generator: SVG Repo Mixer Tools -->
<svg fill="#000000" width="800px" height="800px" viewBox="0 0 24 24" id="hastag" data-name="Flat Color" xmlns="http://www.w3.org/2000/svg" class="icon flat-color"><path id="secondary" d="M19,16H4a1,1,0,0,1,0-2H19a1,1,0,0,1,0,2Zm1-6H5A1,1,0,0,1,5,8H20a1,1,0,0,1,0,2Z" style="fill: rgb(44, 169, 188);"></path><path id="primary" d="M12.69,22a1.07,1.07,0,0,1-.25,0,1,1,0,0,1-.71-1.23l4.82-18a1,1,0,1,1,1.93.52l-4.82,18A1,1,0,0,1,12.69,22ZM6.48,22l-.26,0a1,1,0,0,1-.7-1.23l4.82-18a1,1,0,1,1,1.93.52l-4.82,18A1,1,0,0,1,6.48,22Z" style="fill: rgb(0, 0, 0);"></path></svg>